# xmcd
#
# Track frame offsets:
#	150
#	14330
#	32595
#	51832
#	66911
#	81252
#	90700
#	103253
#	118006
#	131896
#	145369
#	156749
#	169040
#	187290
#	202469
#	216041
#	229199
#	234181
#	243369
#	253195
#	261412
#	269605
#	283519
#	304429
#	314729
#	320402
#	335772
#
# Disc length: 4634 seconds
#
# Revision: 1
# Processed by: cddbd v1.5.2PL0 Copyright (c) Steve Scherf et al.
# Submitted via: audiograbber 1.83.01
#
DISCID=b912181b
DTITLE=Leadbelly - The Definitive Leadbelly - 60th Anniversary Edition - CD3
DYEAR=2009
DGENRE=Blues
TTITLE0=Cow Cow Yickey Yea - Out On The Western Plain
TTITLE1=Noted Rider - Big Fat Woman - Borrow Love and Co.
TTITLE2=John Hardy
TTITLE3=Meeting At The Building - Talking Preatching - We Shall Walk Through Th
TTITLE3=e Valley
TTITLE4=John Henry
TTITLE5=Go Down Old Hannah
TTITLE6=Grasshoppers In My Pillow
TTITLE7=Tell Me Baby What Was Wrong With You
TTITLE8=Don't You Love Your Daddy No More
TTITLE9=Stew Ball
TTITLE10=Mothers' Blues (Little Children Blues)
TTITLE11=Salty Dog
TTITLE12=Titanic (Fare Three Well)
TTITLE13=Boll Weevil
TTITLE14=Take This Hammer
TTITLE15=Can't You Line 'Em
TTITLE16=Ain't Going Down To The Well No More
TTITLE17=Ain't You Glad
TTITLE18=Shout On (Honey I'm All Out and Down)
TTITLE19=Birmingham Jail (Down In The Valley)
TTITLE20=Bye and Bye When The Morning Comes
TTITLE21=Po Howard
TTITLE22=Matchbox Blues
TTITLE23=Pigmeat
TTITLE24=Green Corn
TTITLE25=Backwater Blues
TTITLE26=The Last Leaving Blues
EXTD=by Columbia No1
EXTT0=
EXTT1=
EXTT2=
EXTT3=
EXTT4=
EXTT5=
EXTT6=
EXTT7=
EXTT8=
EXTT9=
EXTT10=
EXTT11=
EXTT12=
EXTT13=
EXTT14=
EXTT15=
EXTT16=
EXTT17=
EXTT18=
EXTT19=
EXTT20=
EXTT21=
EXTT22=
EXTT23=
EXTT24=
EXTT25=
EXTT26=
PLAYORDER=
